<svg width="85" height="19" viewBox="0 0 85 19" fill="none" xmlns="http://www.w3.org/2000/svg">
<path d="M0.0923888 12.513L0.414887 11.7786C0.634773 11.2792 1.03057 11.1471 1.52897 11.5142C2.48181 12.2192 4.05032 12.7333 6.14656 12.7333C7.93497 12.7333 8.69723 12.278 8.69723 11.7345C8.69723 11.1177 8.0669 10.9561 7.02611 10.824L4.65134 10.5155C1.79284 10.1337 0.356251 9.10557 0.356251 7.31375C0.356251 5.38975 1.92477 3.8623 5.5602 3.8623C7.58315 3.8623 8.8878 4.17073 9.73802 4.49385C10.6762 4.86102 10.8081 5.16945 10.8081 5.93317V6.93189C10.8081 7.54875 10.5882 7.75436 9.98723 7.75436H9.31291C8.69723 7.75436 8.49201 7.53406 8.49201 6.93189V6.60878C8.09621 6.47659 7.11406 6.28566 5.97066 6.28566C3.96237 6.28566 2.99487 6.65284 2.99487 7.26969C2.99487 7.72499 3.58124 7.98936 4.65134 8.13623L6.98213 8.44465C9.79666 8.79714 11.2919 9.64899 11.2919 11.7052C11.2919 13.7907 9.31291 15.1272 5.78009 15.1272C3.18544 15.1272 1.10386 14.3048 0.268297 13.541C-0.0248834 13.2473 -0.0688604 12.8801 0.0923888 12.513Z" fill="black"/>
<path d="M25.8329 14.9505H24.6308C24.0445 14.9505 23.8539 14.8623 23.5607 14.4217L21.3032 11.0878C20.9807 10.6325 20.7315 10.515 20.0572 10.515H17.7997V14.128C17.7997 14.7448 17.5799 14.9505 16.9788 14.9505H16.114C15.4983 14.9505 15.293 14.7301 15.293 14.128V3.28896H14.4868C13.8711 3.28896 13.6659 3.06866 13.6659 2.46649V1.73214C13.6659 1.11529 13.8858 0.909668 14.4868 0.909668H16.9935C17.6092 0.909668 17.8144 1.12997 17.8144 1.73214V8.07693H19.8373C20.5117 8.07693 20.7462 7.97412 21.0834 7.50414L22.9744 4.58142C23.2822 4.12612 23.4728 4.038 24.0591 4.038H25.2612C25.9208 4.038 26.0381 4.56673 25.6716 5.11015L23.5607 8.31192C23.3408 8.62035 23.077 8.94346 22.8278 9.20783C23.0916 9.42814 23.4581 9.79531 23.6047 10.0156L26.2433 13.9077C26.6098 14.4217 26.4779 14.9505 25.8329 14.9505Z" fill="black"/>
<path d="M30.1226 16.9479V16.2283C30.1226 15.6114 30.3425 15.4058 30.9435 15.4058H31.9843C32.6147 15.4058 32.9225 15.2736 33.1571 14.7743L33.289 14.4952L28.3049 5.05145C27.9971 4.47866 28.2463 4.05273 28.8913 4.05273H30.02C30.6064 4.05273 30.8703 4.15554 31.0901 4.58147L33.1717 8.87008C33.6555 9.85411 34.1978 10.985 34.623 11.969C35.0627 11.0144 35.5611 9.91285 36.0302 8.9582L38.1558 4.58147C38.3464 4.17023 38.6395 4.05273 39.2259 4.05273H40.3546C41.0143 4.05273 41.2488 4.49334 40.941 5.05145L35.268 15.8464C34.6083 17.0948 33.8607 17.7851 32.1602 17.7851H30.9142C30.3279 17.7851 30.1226 17.5648 30.1226 16.9479Z" fill="black"/>
<path d="M56.2699 9.50212C56.2699 12.9683 53.7046 15.1272 50.2451 15.1272C48.7499 15.1272 47.6065 14.7601 46.8002 14.3048V17.2715C46.8002 17.8884 46.5803 18.094 45.9793 18.094H45.1144C44.4988 18.094 44.2935 17.8737 44.2935 17.2715V6.43253H43.4873C42.8716 6.43253 42.6664 6.21223 42.6664 5.61006V4.87571C42.6664 4.25885 42.8863 4.05324 43.4873 4.05324H45.5982C46.2139 4.05324 46.4191 4.27354 46.4191 4.87571V4.93446C47.24 4.39104 48.486 3.8623 50.2451 3.8623C53.7046 3.87699 56.2699 6.03598 56.2699 9.50212ZM53.6606 9.50212C53.6606 7.47531 52.0335 6.34441 50.0105 6.34441C48.5593 6.34441 47.3719 6.96126 46.8149 7.46062V11.5583C47.3866 12.0577 48.5593 12.6745 50.0105 12.6745C52.0335 12.6598 53.6606 11.5289 53.6606 9.50212Z" fill="black"/>
<path d="M69.9264 8.65023C69.9264 9.26709 69.7066 9.47271 69.1055 9.47271H68.2407C67.625 9.47271 67.4198 9.29646 67.4198 8.65023C67.4198 7.03466 66.8041 6.315 65.3382 6.315C63.9456 6.315 62.7875 7.18153 62.1425 8.239V14.1285C62.1425 14.7453 61.9226 14.951 61.3216 14.951H60.4567C59.841 14.951 59.6358 14.7307 59.6358 14.1285V6.43249H58.8296C58.2139 6.43249 58.0087 6.21219 58.0087 5.61002V4.87567C58.0087 4.25882 58.2286 4.0532 58.8296 4.0532H60.9405C61.5561 4.0532 61.7614 4.2735 61.7614 4.87567V5.58065C62.5383 4.71411 63.7257 3.87695 65.7486 3.87695C68.7097 3.87695 69.9264 5.63939 69.9264 8.65023Z" fill="black"/>
<path d="M71.4823 9.50208C71.4823 6.27094 74.2089 3.87695 77.8297 3.87695C81.4211 3.87695 84.133 6.27094 84.133 9.50208C84.133 12.7479 81.4065 15.1419 77.8297 15.1419C74.2089 15.1419 71.4823 12.7479 71.4823 9.50208ZM81.641 9.50208C81.641 7.62214 79.9845 6.25625 77.8297 6.25625C75.6308 6.25625 73.9743 7.63683 73.9743 9.50208C73.9743 11.3967 75.6308 12.7773 77.8297 12.7773C79.9992 12.7773 81.641 11.3967 81.641 9.50208Z" fill="black"/>
</svg>
